{
  "accessors": [
    {
      "bufferView": 2,
      "componentType": 5126,
      "count": 4231,
      "max": [
        0.5978360176086426,
        0.17508800327777863,
        1.6244080066680908
      ],
      "min": [
        -0.5990279912948608,
        -0.14712199568748474,
        0.9213659763336182
      ],
      "type": "VEC3"
    },
    {
      "bufferView": 2,
      "byteOffset": 50772,
      "componentType": 5126,
      "count": 4231,
      "max": [
        0.9998349547386169,
        0.9999016523361206,
        0.9995797276496887
      ],
      "min": [
        -0.9999985694885254,
        -0.9997690320014954,
        -0.9997239708900452
      ],
      "type": "VEC3"
    },
    {
      "bufferView": 3,
      "componentType": 5126,
      "count": 4231,
      "max": [
        0.996644914150238,
        0.9993631839752197,
        0.997986376285553,
        1.0
      ],
      "min": [
        -0.9999983906745911,
        -0.9980752468109131,
        -0.9987875819206238,
        -1.0
      ],
      "type": "VEC4"
    },
    {
      "bufferView": 1,
      "componentType": 5126,
      "count": 4231,
      "max": [
        0.976078987121582,
        0.9906529784202576
      ],
      "min": [
        0.017472999170422554,
        0.0065910001285374165
      ],
      "type": "VEC2"
    },
    {
      "bufferView": 0,
      "componentType": 5125,
      "count": 22272,
      "type": "SCALAR"
    }
  ],
  "asset": {
    "extras": {
      "author": "MadeByYeshe (https://sketchfab.com/MadeByYeshe)",
      "license": "CC-BY-4.0 (http://creativecommons.org/licenses/by/4.0/)",
      "source": "https://sketchfab.com/3d-models/sweater-pack-50fc69ff7a9a4f91ad721b44e898772d",
      "title": "Sweater Pack"
    },
    "generator": "Sketchfab-16.75.0",
    "version": "2.0"
  },
  "bufferViews": [
    {
      "buffer": 0,
      "byteLength": 89088,
      "name": "floatBufferViews",
      "target": 34963
    },
    {
      "buffer": 0,
      "byteLength": 33848,
      "byteOffset": 89088,
      "byteStride": 8,
      "name": "floatBufferViews",
      "target": 34962
    },
    {
      "buffer": 0,
      "byteLength": 101544,
      "byteOffset": 122936,
      "byteStride": 12,
      "name": "floatBufferViews",
      "target": 34962
    },
    {
      "buffer": 0,
      "byteLength": 67696,
      "byteOffset": 224480,
      "byteStride": 16,
      "name": "floatBufferViews",
      "target": 34962
    }
  ],
  "buffers": [
    {
      "byteLength": 292176,
      "uri": "scene.bin"
    }
  ],
  "extensionsRequired": [
    "KHR_materials_pbrSpecularGlossiness"
  ],
  "extensionsUsed": [
    "KHR_materials_pbrSpecularGlossiness"
  ],
  "images": [
    {
      "uri": "textures/Large_Long_Sleeve_Shirt_diffuse.png"
    },
    {
      "uri": "textures/Large_Long_Sleeve_Shirt_specularGlossiness.png"
    },
    {
      "uri": "textures/Large_Long_Sleeve_Shirt_normal.jpeg"
    }
  ],
  "materials": [
    {
      "doubleSided": true,
      "extensions": {
        "KHR_materials_pbrSpecularGlossiness": {
          "diffuseFactor": [
            1.0,
            1.0,
            1.0,
            1.0
          ],
          "diffuseTexture": {
            "index": 0
          },
          "glossinessFactor": 1.0,
          "specularFactor": [
            0.04,
            0.04,
            0.04
          ],
          "specularGlossinessTexture": {
            "index": 1
          }
        }
      },
      "name": "Large_Long_Sleeve_Shirt",
      "normalTexture": {
        "index": 2
      }
    }
  ],
  "meshes": [
    {
      "name": "Object_0",
      "primitives": [
        {
          "attributes": {
            "NORMAL": 1,
            "POSITION": 0,
            "TANGENT": 2,
            "TEXCOORD_0": 3
          },
          "indices": 4,
          "material": 0,
          "mode": 4
        }
      ]
    }
  ],
  "nodes": [
    {
      "children": [
        1
      ],
      "matrix": [
        1.0,
        0.0,
        0.0,
        0.0,
        0.0,
        2.220446049250313e-16,
        -1.0,
        0.0,
        0.0,
        1.0,
        2.220446049250313e-16,
        0.0,
        0.0,
        0.0,
        0.0,
        1.0
      ],
      "name": "Sketchfab_model"
    },
    {
      "children": [
        2
      ],
      "name": "Sweater.obj.cleaner.materialmerger.gles"
    },
    {
      "mesh": 0,
      "name": "Object_2"
    }
  ],
  "samplers": [
    {
      "magFilter": 9729,
      "minFilter": 9987,
      "wrapS": 10497,
      "wrapT": 10497
    }
  ],
  "scene": 0,
  "scenes": [
    {
      "name": "Sketchfab_Scene",
      "nodes": [
        0
      ]
    }
  ],
  "textures": [
    {
      "sampler": 0,
      "source": 0
    },
    {
      "sampler": 0,
      "source": 1
    },
    {
      "sampler": 0,
      "source": 2
    }
  ]
}
